<?xml version="1.0" encoding="utf-8"?>
<!-- Generator: Adobe Illustrator 16.0.0, SVG Export Plug-In . SVG Version: 6.00 Build 0)  -->
<!DOCTYPE svg PUBLIC "-//W3C//DTD SVG 1.1//EN" "http://www.w3.org/Graphics/SVG/1.1/DTD/svg11.dtd">
<svg version="1.1" id="Layer_1" xmlns="http://www.w3.org/2000/svg" xmlns:xlink="http://www.w3.org/1999/xlink" x="0px" y="0px"
	 width="1190.55px" height="841.89px" viewBox="0 0 1190.55 841.89" enable-background="new 0 0 1190.55 841.89"
	 xml:space="preserve">
<g>
	<path fill="#E4E4F2" d="M237.809,184.229c114.852-91.725,263.509-59.604,269.691-58.167
		c93.931,21.822,89.712,70.782,192.132,107.524c149.484,53.622,228.035-25.716,313.762,35.254
		c66.997,47.65,95.066,150.2,75.794,227.388c-35.647,142.781-240.003,225.699-394.842,206.235
		C546.51,683.875,507.547,579.97,343.57,582.597c-106.046,1.702-142.225,46-183.32,17.63
		C81.351,545.753,93.975,299.099,237.809,184.229z"/>
	<path fill="#FFFFFF" d="M908.386,670.41H296.448c-17.573,0-31.816-14.245-31.816-31.816V245.616
		c0-17.573,14.244-31.816,31.816-31.816h611.938c17.571,0,31.815,14.243,31.815,31.816v392.978
		C940.201,656.165,925.957,670.41,908.386,670.41z"/>
	<path fill="#E6E6E5" d="M914.157,215.372H295.019c-16.131-0.62-29.458,10.392-28.974,29.032v10.097l672.807-0.621v-11.51
		C938.853,228.072,927.581,215.372,914.157,215.372z"/>
	<g>
		<path fill="#424CA0" d="M550.355,543.197h-222.59c-4.271,0-7.732-3.462-7.732-7.732v-68.842c0-4.271,3.462-7.732,7.732-7.732
			h222.59c4.271,0,7.732,3.462,7.732,7.732v68.842C558.088,539.735,554.626,543.197,550.355,543.197z"/>
		<circle fill="#FFFFFF" cx="367.794" cy="502.248" r="22.883"/>
		<g>
			<line fill="none" stroke="#FFFFFF" stroke-miterlimit="10" x1="409.947" y1="504.658" x2="530.387" y2="504.658"/>
			<line fill="none" stroke="#FFFFFF" stroke-miterlimit="10" x1="409.947" y1="489.073" x2="467.657" y2="489.073"/>
			<line fill="none" stroke="#FFFFFF" stroke-miterlimit="10" x1="409.947" y1="519.11" x2="530.387" y2="519.11"/>
		</g>
	</g>
	<path fill="#FDB839" d="M902.43,304.167v-11.51c0-7.247-5.876-13.121-13.119-13.121H638.683c-7.243,0-13.119,5.874-13.119,13.121
		v112.306L902.43,304.167z"/>
	
		<rect x="695.371" y="287.204" transform="matrix(0.9286 -0.3711 0.3711 0.9286 -74.9946 291.7633)" fill="#FDB839" width="50.557" height="107.102"/>
	<path fill="none" stroke="#B4B4B4" stroke-miterlimit="10" d="M885.098,601.905H642.896c-9.57,0-17.332-7.762-17.332-17.335V296.87
		c0-9.573,7.762-17.333,17.332-17.333h242.202c9.57,0,17.332,7.76,17.332,17.333V584.57
		C902.43,594.144,894.668,601.905,885.098,601.905z"/>
	
		<rect x="678.179" y="323.581" transform="matrix(0.9286 -0.371 0.371 0.9286 -89.7158 287.9309)" fill="#FDB839" width="50.556" height="107.102"/>
	
		<rect x="651.615" y="363.408" transform="matrix(0.9286 -0.3711 0.3711 0.9286 -95.9058 278.9413)" fill="#FDB839" width="50.557" height="50.559"/>
	
		<rect x="835.52" y="300.617" transform="matrix(0.9286 -0.3711 0.3711 0.9286 -63.444 343.4755)" fill="#FDB839" width="50.557" height="71.96"/>
	<rect x="320.822" y="279.536" fill="#E6E6E5" width="237.266" height="34.466"/>
	<rect x="320.822" y="564.848" fill="#E6E6E5" width="237.266" height="13.297"/>
	<rect x="320.822" y="589.627" fill="#E6E6E5" width="237.266" height="13.297"/>
	<g>
		<path fill="none" stroke="#B4B4B4" stroke-miterlimit="10" stroke-dasharray="7.0155,7.0155" d="M550.355,437.211h-222.59
			c-4.271,0-7.732-3.461-7.732-7.732v-68.842c0-4.271,3.462-7.732,7.732-7.732h222.59c4.271,0,7.732,3.461,7.732,7.732v68.842
			C558.088,433.75,554.626,437.211,550.355,437.211z"/>
	</g>
	<g>
		<circle fill="#FAA324" cx="879.378" cy="236.66" r="5.513"/>
		<circle fill="#EB4535" cx="897.78" cy="236.66" r="5.513"/>
		<circle fill="#424CA0" cx="916.179" cy="236.66" r="5.513"/>
	</g>
	<path fill="#FFFFFF" d="M849.344,245.758H293.231c-5.982,0-10.833-4.85-10.833-10.833l0,0c0-5.984,4.851-10.834,10.833-10.834
		h556.112c5.982,0,10.832,4.85,10.832,10.834l0,0C860.176,240.908,855.326,245.758,849.344,245.758z"/>
	<path fill="none" stroke="#B4B4B4" stroke-miterlimit="10" d="M908.386,670.41H296.448c-17.573,0-31.816-14.245-31.816-31.816
		V245.616c0-17.573,14.244-31.816,31.816-31.816h611.938c17.571,0,31.815,14.243,31.815,31.816v392.978
		C940.201,656.165,925.957,670.41,908.386,670.41z"/>
	<g>
		<path fill="#424CA0" d="M461.23,437.211h-222.59c-4.271,0-7.732-3.461-7.732-7.732v-68.842c0-4.271,3.462-7.732,7.732-7.732
			h222.59c4.271,0,7.732,3.461,7.732,7.732v68.842C468.963,433.75,465.501,437.211,461.23,437.211z"/>
		<circle fill="#FFFFFF" cx="278.669" cy="396.262" r="22.883"/>
		<g>
			<line fill="none" stroke="#FFFFFF" stroke-miterlimit="10" x1="320.822" y1="398.67" x2="441.262" y2="398.67"/>
			<line fill="none" stroke="#FFFFFF" stroke-miterlimit="10" x1="320.822" y1="383.086" x2="378.534" y2="383.086"/>
			<line fill="none" stroke="#FFFFFF" stroke-miterlimit="10" x1="320.822" y1="413.123" x2="441.262" y2="413.123"/>
		</g>
	</g>
	<g>
		<g>
			<path fill="#FAA324" d="M205.663,704.746c0,0,14.923,4.245,22.252,8.318c5.872,3.261,6.608,5.979-0.652,5.998
				c-9.271,0.026-20.294-0.175-26.912-1.203c-4.474-0.699-2.612-11.214-1.862-13.01L205.663,704.746z"/>
			<polygon fill="#FCC69B" points="204.351,704.766 205.868,698.958 198.138,699.871 198.49,704.85 			"/>
			<path fill="#424CA0" d="M232.421,717.697c-8.053-0.278-24.946-0.974-29.371-2.031c-2.607-0.622-4.368-1.761-5.557-2.835
				c0.152,2.524,0.895,4.721,2.858,5.028c6.618,1.028,17.641,1.229,26.912,1.203C230.403,719.057,232.041,718.542,232.421,717.697z"
				/>
			<path fill="#DBA285" d="M170.315,502.29c0,0-1.862-8.791,13.786-20.486c15.649-11.695,24.093-20.182,24.093-20.182l14.828-51.352
				l5.147,2.432c0,0,0.324,40.301-1.935,52.265C223.978,476.932,174.389,528.816,170.315,502.29z"/>
			<path fill="#FAA324" d="M210.966,448.952l16.833,2.449l-0.632,14.063c0,0-24.603,38.391-40.621,44.447
				c-16.02,6.057-25.633-3.293-21.709-9.978c3.923-6.688,40.736-37.918,40.736-37.918L210.966,448.952z"/>
			
				<rect x="214.653" y="439.303" transform="matrix(-0.156 0.9878 -0.9878 -0.156 696.8877 303.2927)" fill="#FDB839" width="8.421" height="20.169"/>
			<path fill="#DBA285" d="M228.153,424.387c0,0-9.726-23.796-6.872-26.533c0,0,9.091,15.332,11.843,21.803"/>
			<g>
				<path fill="#FDB839" d="M113.421,690.175c0,0,10.495,11.424,14.609,18.729c3.295,5.856,2.501,8.558-3.695,4.772
					c-7.914-4.83-17.202-10.768-22.303-15.112c-3.447-2.935,3.643-10.919,5.224-12.058L113.421,690.175z"/>
				<polygon fill="#FCC69B" points="112.293,689.502 116.625,685.348 109.56,682.08 107.256,686.506 				"/>
			</g>
			<g>
				<path fill="#424CA0" d="M200.755,562.218l-30.661-17.099c0,0,5.149,64.657,24.732,93.226c0,0,0.152,52.018,3.572,63.234
					l7.171-0.178c0,0,10.958-59.171,9.936-68.599C213.625,615.458,211.809,590.462,200.755,562.218z"/>
			</g>
			<g>
				<path fill="#401B0F" d="M168.268,443.142c0,0-12.27,6.021-13.247,28.604s-4.885,23.424-4.885,23.424s16.605,9.657,35.171,0
					L168.268,443.142z"/>
				<path fill="#FCC69B" d="M183.076,445.258c4.926,4.51,7.302,11.796,7.549,18.7c0.271,7.493-11.229,8.505-17.75,4.865
					c-5.785-3.231-9.889-10.463-8.784-16.633C165.522,444.196,176.501,439.24,183.076,445.258z"/>
				<path fill="#FCC69B" d="M176.362,454.442l-12.087,1.877l4.54,29.234c0.65,4.187,4.571,7.053,8.758,6.402l0,0
					c4.505-0.698,7.409-5.147,6.234-9.554L176.362,454.442z"/>
				<path fill="#401B0F" d="M177.646,443.721c0,0,2.998,16.354-13.373,20.366c-11.43,2.799-11.108-25.646,5.024-26.238
					c22.673-0.831,17.571,12.204,17.571,12.204S181.404,442.064,177.646,443.721z"/>
				<polygon fill="#DBA285" points="181.364,473.214 172.179,469.173 180.729,470.723 				"/>
			</g>
			<path fill="#424CA0" d="M194.979,548.807l-37.341,9.927c0,0-10.502,14.248-6.647,69.724c0,0-32.602,27.416-41.705,54.099
				l6.043,3.95c0,0,45.914-41.018,52.362-47.971C175.436,630.188,190.402,602.406,194.979,548.807z"/>
			<path fill="#FDB839" d="M191.028,485.262c-0.776-3.338-3.167-6.069-6.385-7.25c-6.909-2.533-23.736-2.662-23.893,20.065
				c-0.307,44.709-3.112,60.656-3.112,60.656s8.968,7.8,43.117,3.484l-4.5-28.244l3.987-8.678
				c2.563-6.882,2.307-14.497-0.713-21.194L191.028,485.262z"/>
			<path fill="#FCC69B" d="M177.148,504.092c0,0-1.862-8.79,13.787-20.486c15.648-11.695,24.094-20.182,24.094-20.182l14.826-51.353
				l5.149,2.431c0,0,0.322,40.302-1.935,52.267C230.811,478.733,181.222,530.618,177.148,504.092z"/>
			<path fill="#FCC69B" d="M228.682,416.864c0,0-3.419-14.473-0.568-17.208c0,0,2.787,6.008,5.541,12.479
				c0.861,2.025,9.624,8.341,5.102,7.667C234.237,419.136,228.682,416.864,228.682,416.864z"/>
			<path fill="#FCC69B" d="M185.306,448.05c0,0,3.708,3.869,6.673,4.604c0,0-0.626,2.663-2.862,3.95L185.306,448.05z"/>
			<path fill="#424CA0" d="M129.443,715.213c-6.716-4.452-20.748-13.887-23.964-17.103c-1.896-1.896-2.8-3.785-3.251-5.325
				c-1.19,2.229-1.708,4.491-0.196,5.778c5.101,4.345,14.389,10.282,22.303,15.112C127.012,715.313,128.677,715.73,129.443,715.213z
				"/>
			<path fill="#FCC69B" d="M107.814,686.839c0,0,8.16,14.109,11.785,10.463l-6.032-9.021L107.814,686.839z"/>
			<path fill="#FCC69B" d="M199.351,704.62c0,0,14.31,8.023,15.331,2.983l-10-4.213L199.351,704.62z"/>
			<path fill="#FDB839" d="M219.025,449.583l15.355,2.821l-0.927,17.732c0,0-22.83,34.35-38.85,40.406
				c-16.018,6.06-25.632-3.293-21.708-9.978c3.923-6.688,40.736-37.918,40.736-37.918L219.025,449.583z"/>
			
				<rect x="222.712" y="439.935" transform="matrix(-0.156 0.9878 -0.9878 -0.156 706.8271 296.0613)" fill="#FDB839" width="8.421" height="20.168"/>
			<path fill="#424CA0" d="M200.755,562.218l4,11.274l-25.792,28.452l2.423-38.426C181.387,563.519,189.596,563.777,200.755,562.218
				z"/>
			<path fill="#525DAA" d="M170.817,624.242c-5.262,5.419-6.933,7.875-7.674,11.062c-0.604,2.598,0.05,2.938-0.676,4.513
				c-1.982,4.294-7.602,3.41-14.446,6.545c-5.012,2.294-8.307,5.97-14.897,13.317c-3.272,3.649-2.98,3.856-8.351,10.608
				c-6.367,8.004-10.231,12.055-12.048,14.517l2.604,1.702c0,0,45.914-41.018,52.362-47.971c3.473-3.743,8.397-11.407,13.186-23.543
				C179.996,614.801,176.89,617.991,170.817,624.242z"/>
			<rect x="195.693" y="697.149" fill="#424CA0" width="12.039" height="4.753"/>
			
				<rect x="106.342" y="681.39" transform="matrix(-0.8661 -0.4999 0.4999 -0.8661 -132.1326 1332.1353)" fill="#424CA0" width="12.038" height="4.752"/>
		</g>
		<g>
			<g>
				<path fill="#FDB839" d="M154.496,461.347l27.552-21.764c-6.01-7.606-17.048-8.903-24.656-2.893
					C149.782,442.698,148.488,453.737,154.496,461.347"/>
			</g>
			<path fill="#FAA324" d="M163.306,433.637c-2.088,0.614-4.101,1.62-5.914,3.054c-7.61,6.008-8.904,17.047-2.896,24.656
				l7.171-5.665C156.891,448.826,157.657,439.612,163.306,433.637z"/>
			
				<rect x="168.017" y="428.325" transform="matrix(0.5981 0.8014 -0.8014 0.5981 428.1354 43.6732)" fill="#FAA324" width="5.018" height="40.717"/>
		</g>
		<path fill="#424CA0" d="M200.242,525.296c2.176-5.843,2.299-12.213,0.441-18.104c-10.408,3.788-19.302,3.031-26.042,0.967
			c-5.623-20.191,3.2-29.201,5.518-31.146c-2.213-0.235-4.69-0.132-7.126,0.524c-3.528,5.057-7.171,14.151-4.119,28.371
			c-5.235-2.54-8.186-5.358-8.186-5.358l0,0c-0.391,42.813-4.168,60.145-4.168,60.145s10.045,5.84,44.194,1.524l-4.5-28.244
			L200.242,525.296z"/>
		<path fill="#525DAA" d="M215.505,632.803c-1.88-17.345-3.696-42.341-14.75-70.585l-4.5-28.244l3.987-8.678
			c2.176-5.843,2.299-12.213,0.441-18.104c-1.781,0.65-3.5,1.123-5.189,1.521c0.485,5.012,0.72,11.554-2.558,18.477
			c-1.124,2.375-2.868,5.231-3.61,9.93c-0.878,5.552,0.225,10.01,0.902,12.64c3.854,14.951,7.674,25.731,7.674,25.731
			c5.326,15.027,7.988,22.54,8.124,26.183c0.514,13.68-5.727,21.366-0.451,28.438c2.535,3.397,6.094,4.462,6.32,8.128
			c0.215,3.475-2.856,4.665-4.964,9.026c-2.879,5.953-0.32,10.271,0,18.959c0.324,8.822-2.116,9.874-3.161,19.411
			c-0.56,5.115-0.544,10.842-0.083,15.814l1.882-0.048C205.569,701.401,216.527,642.23,215.505,632.803z"/>
	</g>
	<g>
		<g>
			<polygon fill="#EB4535" points="398.672,711.686 339.647,711.686 358.867,614.406 379.453,614.406 			"/>
			<rect x="325.677" y="706.853" fill="#EB4535" width="84.235" height="10.056"/>
		</g>
		<polygon fill="#EB4535" points="398.672,711.686 339.647,711.686 358.867,614.406 379.453,614.406 		"/>
		<polygon fill="#FFFFFF" points="350.722,655.628 387.596,655.628 384.587,640.396 353.732,640.396 		"/>
		<polygon fill="#FFFFFF" points="343.678,691.277 394.64,691.277 391.631,676.043 346.689,676.043 		"/>
	</g>
	<g>
		<g>
			<g>
				<path fill="#424CA0" d="M1031.878,697.221c0,0-23.113,12.715-30.72,12.806c-7.603,0.091-1.974,3.354,6.313,4.128
					c6.561,0.611,19.689-1.255,27.354-2.733c0.585-0.113,2.423-1.986,2.423-1.986c0.521,1.799,0.521,1.799,0.521,1.799
					c0.715,0.158,3.967-0.32,3.967-0.32c0.284-3.873-1.635-13.747-1.635-13.747L1031.878,697.221z"/>
				<g>
					<polygon fill="#FBB781" points="1031.878,697.221 1032.186,691.045 1040.387,691.452 1040.102,697.166 					"/>
				</g>
			</g>
		</g>
		<path fill="#424CA0" d="M1031.6,512.038l27.364,4.685c0,0-8.341,73.147-16.982,101.634c0,0,5.669,49.006-0.395,75.497
			l-10.842,0.521c0,0-9.23-62.655-11.741-73.231C1015.992,608.443,1019.732,577.789,1031.6,512.038z"/>
		<polygon fill="#424CA0" points="1028.352,688.214 1029.176,695.303 1042.748,694.973 1043.486,688.602 		"/>
		<g>
			<g>
				<g>
					<path fill="#424CA0" d="M1064.173,699.722c0,0-23.113,12.715-30.72,12.806c-7.605,0.094-1.977,3.355,6.309,4.128
						c6.564,0.611,19.69-1.255,27.355-2.733c0.588-0.113,2.426-1.986,2.426-1.986c0.521,1.799,0.521,1.799,0.521,1.799
						c0.715,0.158,3.967-0.32,3.967-0.32c0.284-3.876-1.638-13.747-1.638-13.747L1064.173,699.722z"/>
					<g>
						<polygon fill="#FBB781" points="1064.173,699.722 1064.477,693.546 1072.679,693.953 1072.394,699.667 						"/>
					</g>
				</g>
			</g>
			<path fill="#424CA0" d="M1044.884,516.363l29.011,22.602c0,0,9.538,14.08-5.043,80.201c0,0,12.646,36.391,4.558,77.039
				l-10.731,1.624c0,0-12.961-67.392-16.539-77.657C1041.846,607.849,1038.4,573.625,1044.884,516.363z"/>
			<polygon fill="#424CA0" points="1059.973,691.291 1061.357,698.292 1074.862,696.881 1075.089,690.472 			"/>
			<polygon fill="#424CA0" points="1042.762,538.522 1027.012,538.102 1024.494,553.229 1047.301,592.338 			"/>
		</g>
		<path fill="#424CA0" d="M1032.305,713.66"/>
		<g>
			<g>
				<path fill="#FDB839" d="M1059.556,457.034c0,0-10.764-9.719-23.87,9.829s-21.709,28.759-21.709,28.759l-49.801-27.458
					l-5.199,10.576c0,0,44.864,51.324,59.122,47.873C1032.354,523.157,1091.725,460.299,1059.556,457.034z"/>
				<path fill="#FBB781" d="M959.3,479.108c0,0-24.122-18.573-12.628-15.3c5.216,1.485,9.801,5.438,11.638,3.805
					c1.793-1.602-2.028-3.076-2.691-6.632c-0.596-3.21,10.744,8.842,10.744,8.842L959.3,479.108z"/>
				<g opacity="0.1">
					<polygon fill="#010101" points="976.117,484.201 996.784,503.493 973.416,492.552 					"/>
				</g>
				<g opacity="0.1">
					<g>
						<polygon fill="#010101" points="1012.365,514.448 1037.268,491.889 1037.268,497.851 1024.814,517.768 						"/>
					</g>
				</g>
				<polygon fill="#FDB839" points="956.213,478.75 961.328,482.615 970.844,471.004 965.731,467.142 				"/>
			</g>
			<path fill="#FDB839" d="M1049.174,449.179c8.321-3.051,31.906-5.054,35.54,15.09c3.319,18.39-3.691,34.392-6.438,47.445
				c-1.961,9.306-3.019,23.33-3.019,23.33s-15.445,18.254-44.182,10.075l1.854-31.25l1.967-17.303
				c-1.596-19.648-1.126-22.049,2.371-31.936c1.459-4.129,6.823-13.022,10.758-14.957
				C1048.404,449.486,1048.789,449.321,1049.174,449.179z"/>
			<path fill="#424CA0" d="M1036.491,481.276l-2.446-1.844c0-12.569,5.157-29.911,25.372-31.467h0.638
				C1034.045,453.003,1036.491,480.963,1036.491,481.276z"/>
			<path fill="#FBB781" d="M1056.579,416.544l14.954-0.09l-1.803,31.175c-0.055,0.922-0.277,2.006-1.103,2.598
				c-6.118,4.391-11.333,2.256-11.333,2.256c-5.051-1.204-1.379-3.498-0.647-9.183L1056.579,416.544z"/>
			<path fill="#FBB781" d="M1054.709,409.501c-7.247,9.11-8.085,17.131-7.849,25.465c0.301,10.57,14.358,10.689,23.308,5.132
				c7.936-4.931,11.673-14.003,9.712-22.622C1077.334,406.308,1062.532,399.662,1054.709,409.501z"/>
			<g opacity="0.1">
				<polygon fill="#010101" points="1055.93,446.384 1064.435,442.938 1056.586,443.74 				"/>
			</g>
			<path fill="#FBB781" d="M1049.896,419.56c0,0-3.067,2.439-6.135,6.471c0,0,1.278,2.721,3.974,3.598L1049.896,419.56z"/>
			<path fill="#401B0F" d="M1081.469,415.842c-0.56-14.403-25.588-14.263-28.597-11.907c-5.821,4.554-1.133,9.678-1.133,9.678
				l1.239-0.917c0.201-0.104,0.434-0.206,0.695-0.303c3.686,0.543,16.574,3.19,12.641,13.336c-0.993,2.556,1.2,3.739,3.821,3.876
				c0.235,3.086,0.216,6.393-0.288,9.699C1069.485,441.689,1082.375,439.24,1081.469,415.842z"/>
			<g>
				<g>
					<path fill="#424CA0" d="M977.162,496.547l-3.549,4.012l-49.391-43.706c-0.854-0.757-0.936-2.063-0.178-2.918l2.18-2.465
						L977.162,496.547z"/>
				</g>
				<path fill="#FFFFFF" d="M974.984,482.018c1.449,1.281,2.274,3.132,2.256,5.069l-0.091,9.479l-50.94-45.078l14.682,2.278
					c1.719,0.265,3.323,1.019,4.627,2.171L974.984,482.018z"/>
			</g>
			<path fill="#FBB781" d="M1061.662,431.592c1.152,1.74,4.115,1.809,6.616,0.152c2.504-1.66,3.598-4.413,2.442-6.157
				c-1.151-1.741-4.115-1.806-6.619-0.149C1061.601,427.095,1060.507,429.851,1061.662,431.592z"/>
			<path fill="#424CA0" d="M1075.396,543.094c0,0,0.918-22.074,2.879-31.38c1.1-5.222,2.876-10.922,4.403-17.05
				c-18.562-1.695-36.397-9.27-48.62-15.694c-0.143,4.019,0.158,9.243,0.838,17.597l-3.821,17.286l-5.3,31.674
				C1054.512,553.702,1075.396,543.094,1075.396,543.094z"/>
			<path fill="none" stroke="#424CA0" stroke-width="2" stroke-miterlimit="10" d="M1056.599,450.13"/>
		</g>
		<path fill="#424CA0" d="M1066.218,563.137l-9.684-2.624c12.488-46.062,18.58-89.179,13.3-94.147
			c-3.451-3.1-5.688-2.948-7.072-2.56c-7.328,2.035-14.4,18.001-16.678,25.413l-7.597-2.947c0.88-2.859,7.021-28.086,21.59-32.133
			c3.879-1.074,9.887-1.129,16.454,4.759C1089.563,470.584,1073.658,535.688,1066.218,563.137z"/>
		<g>
			<path fill="#FDB839" d="M1063.609,460.438c0,0-9.786-0.022-20.385,20.991c-10.6,21.01-16.122,26.591-16.122,26.591l-49.97-22.039
				l-8.674,11.271c0,0,53.428,45.583,65.906,37.87C1057.634,520.734,1095.938,459.72,1063.609,460.438z"/>
			<path fill="#FBB781" d="M968.459,497.252c0,0-11.411,0.941-14.105-5.833c-1.722-4.325-7.808-13.938-1.796-9.492
				c3.778,2.792,8.955,7.988,10.498,5.811c1.511-2.126-6.38-2.944-4.348-7.131l13.407,7.513L968.459,497.252z"/>
		</g>
		<polygon fill="#FDB839" points="964.528,500.109 970.203,503.089 979.701,486.278 974.027,483.299 		"/>
		<g>
			<g>
				<path fill="#FDB839" d="M1083.209,420.591l-31.301-15.908c4.393-8.644,14.963-12.089,23.604-7.695
					C1084.154,401.38,1087.603,411.948,1083.209,420.591"/>
			</g>
			<path fill="#FAA324" d="M1069.113,395.159c2.168,0.192,4.338,0.781,6.399,1.828c8.642,4.394,12.09,14.962,7.696,23.605
				l-8.146-4.141C1078.396,408.787,1075.83,399.905,1069.113,395.159z"/>
			
				<rect x="1062.49" y="390.977" transform="matrix(-0.4287 0.9034 -0.9034 -0.4287 1893.2241 -374.4532)" fill="#FAA324" width="5.018" height="40.715"/>
		</g>
	</g>
	<g>
		<g>
			<polygon fill="#EB4535" points="999.628,711.686 940.604,711.686 959.824,614.406 980.41,614.406 			"/>
			<rect x="926.633" y="706.853" fill="#EB4535" width="84.234" height="10.056"/>
		</g>
		<polygon fill="#EB4535" points="999.628,711.686 940.604,711.686 959.824,614.406 980.41,614.406 		"/>
		<polygon fill="#FFFFFF" points="951.678,655.628 988.554,655.628 985.545,640.396 954.689,640.396 		"/>
		<polygon fill="#FFFFFF" points="944.634,691.277 995.597,691.277 992.588,676.043 947.646,676.043 		"/>
	</g>
	<g>
		<g>
			<path fill="#424CA0" d="M558.209,731.441c1.196,0,2.27-0.838,2.518-2.055l44.672-217.938c0.287-1.392-0.608-2.75-2.003-3.035
				c-1.382-0.291-2.75,0.611-3.035,2.003l-44.671,217.935c-0.285,1.395,0.611,2.753,2.002,3.037
				C557.865,731.425,558.039,731.441,558.209,731.441z"/>
			<path fill="#525DAA" d="M600.797,532.43h64.461c1.42,0,2.572-1.151,2.572-2.572c0-1.42-1.152-2.571-2.572-2.571h-64.461
				c-1.42,0-2.571,1.151-2.571,2.571C598.226,531.278,599.377,532.43,600.797,532.43z"/>
			<path fill="#525DAA" d="M594.505,560.461h64.46c1.421,0,2.572-1.152,2.572-2.572s-1.151-2.572-2.572-2.572h-64.46
				c-1.42,0-2.572,1.152-2.572,2.572S593.084,560.461,594.505,560.461z"/>
			<path fill="#525DAA" d="M589.102,588.495h64.464c1.42,0,2.572-1.152,2.572-2.572c0-1.421-1.152-2.572-2.572-2.572h-64.464
				c-1.42,0-2.572,1.151-2.572,2.572C586.529,587.343,587.681,588.495,589.102,588.495z"/>
			<path fill="#525DAA" d="M583.264,616.525h64.462c1.42,0,2.572-1.151,2.572-2.572c0-1.42-1.152-2.571-2.572-2.571h-64.462
				c-1.42,0-2.572,1.151-2.572,2.571C580.691,615.374,581.843,616.525,583.264,616.525z"/>
			<path fill="#525DAA" d="M577.757,644.56h64.462c1.421,0,2.572-1.151,2.572-2.572c0-1.42-1.151-2.571-2.572-2.571h-64.462
				c-1.42,0-2.57,1.151-2.57,2.571C575.187,643.408,576.337,644.56,577.757,644.56z"/>
			<path fill="#525DAA" d="M572.291,672.591h64.461c1.42,0,2.571-1.152,2.571-2.572c0-1.421-1.151-2.572-2.571-2.572h-64.461
				c-1.42,0-2.572,1.151-2.572,2.572C569.719,671.438,570.871,672.591,572.291,672.591z"/>
			<path fill="#525DAA" d="M566.72,700.625h64.464c1.417,0,2.568-1.152,2.568-2.572c0-1.421-1.151-2.572-2.568-2.572H566.72
				c-1.42,0-2.57,1.151-2.57,2.572C564.149,699.473,565.299,700.625,566.72,700.625z"/>
			<path fill="#424CA0" d="M627.207,731.441c1.197,0,2.269-0.838,2.518-2.055l44.673-217.938c0.285-1.392-0.611-2.75-2.003-3.035
				c-1.385-0.291-2.753,0.611-3.037,2.003l-44.671,217.935c-0.284,1.395,0.612,2.753,2.003,3.037
				C626.864,731.425,627.039,731.441,627.207,731.441z"/>
		</g>
	</g>
	<g>
		<g>
			
				<line fill="none" stroke="#424CA0" stroke-width="2" stroke-linecap="round" stroke-miterlimit="10" x1="839.622" y1="371.563" x2="852.822" y2="405.14"/>
			<polyline fill="none" stroke="#424CA0" stroke-linecap="round" stroke-miterlimit="10" points="804.878,363.512 809.197,371.049 
				839.059,370.012 860.976,350.5 857.694,339.501 			"/>
			
				<line fill="none" stroke="#424CA0" stroke-linecap="round" stroke-miterlimit="10" x1="860.176" y1="337.452" x2="802.018" y2="363.148"/>
			<path fill="#FAA324" d="M852.065,352.632l-33.997,14.263c-4.904,2.058-10.602-0.272-12.66-5.177l0,0
				c-2.057-4.906,0.272-10.604,5.177-12.662l33.997-14.263c4.908-2.058,10.602,0.272,12.66,5.178l0,0
				C859.303,344.877,856.97,350.574,852.065,352.632z"/>
			<path fill="#FDB839" d="M816.131,363.1l34-14.263c4.448-1.865,6.738-6.72,5.604-11.267c-2.65-3.179-7.15-4.455-11.152-2.776
				l-33.997,14.263c-4.448,1.867-6.739,6.722-5.604,11.268C807.631,363.504,812.129,364.781,816.131,363.1z"/>
		</g>
		<g>
			<g>
				<polygon fill="#424CA0" points="808.66,674.8 764.511,674.8 756.391,614.406 816.781,614.406 				"/>
				<path fill="none" stroke="#424CA0" stroke-miterlimit="10" d="M760.344,615.901c0-14.491,11.748-26.242,26.242-26.242
					s26.241,11.751,26.241,26.242"/>
			</g>
			<path fill="#FDB839" d="M804.471,616.387c0.414-0.392,0.476-1.126,0.346-1.98h-36.361c-0.695,4.119,1.009,8.616,2.484,8.816
				c1.831,0.246,3.096-6.134,5.338-5.982c1.887,0.13,4.488,4.449,2.673,14.737c-1.604,9.078,3.925,10.997,4.529,10.88
				c5.659-1.07,1.989-21.809,7.001-23.268c1.899-0.551,3.772,2.238,6.303,1.174c2.087-0.877,2.184-3.361,4.697-4.057
				C803.021,616.279,803.855,616.973,804.471,616.387z"/>
		</g>
		<g>
			<g>
				<g>
					<path fill="#FDB839" d="M842.631,560.099l28.412,5.047l21.386-11.071c0,0-2.132-15.105-2.016-19.324
						c0.288-10.127,5.171-32.936-2.031-49.203c-5.3-11.964-15.167-6.525-27.646-2.578l-14.049,1.536c0,0-22.53-13.614-6.787,49.145
						C841.692,540.797,842.631,560.099,842.631,560.099z"/>
					<g>
						<path fill="#FCC69B" d="M854.382,439.518c-5.581,5.708-7.93,14.56-7.769,22.819c0.175,8.958,13.971,9.401,21.509,4.626
							c6.69-4.238,11.106-13.142,9.379-20.434C875.263,437.085,861.829,431.898,854.382,439.518z"/>
						<path fill="#FCC69B" d="M851.47,443.617c0,0-3.413,3.982-6.271,4.859c0,0,0.758,2.569,3.01,3.705L851.47,443.617z"/>
					</g>
					<g>
						<path fill="#FDB839" d="M834.313,489.795l-7.228,27.61l-4.526,14.271l-27.58,48.53l8.618,5.762l34.835-48.882l5.338-15.193
							l20.706-40.289c1.66-4.728-8.435-4.549-13.161-6.209C846.588,473.731,837.727,479.928,834.313,489.795z"/>
						<path fill="#FCC69B" d="M796.149,578.145c0,0-10.444,11.547-3.297,10.768c5.015-0.547,1.382-1.277,1.382-1.277
							s-7.128,6.25-3.983,6.137c3.146-0.113,9.768,2.679,11.379-1.617c1.95-5.199,2.856-8.244,2.856-8.244L796.149,578.145z"/>
						
							<rect x="798.306" y="572.142" transform="matrix(0.5628 -0.8266 0.8266 0.5628 -128.6249 915.9728)" fill="#FDB839" width="6.65" height="14.889"/>
					</g>
					<g>
						<g>
							<polygon fill="#FDB839" points="866.508,456.054 847.749,403.479 857.235,399.295 883.076,453.472 885.703,469.36 
								868.491,470.891 							"/>
							<path fill="#FDB839" d="M882.823,507.534c-4.946,0.815-9.615-2.526-10.434-7.474l-3.898-29.17l17.212-1.53l5.486,25.495
								C892.005,499.795,887.764,506.716,882.823,507.534z"/>
						</g>
						<path fill="#FCC69B" d="M850.658,404.391c0,0-10.752-11.422-6.238-13.681l3.329,5.457c0,0-3.921-14.012-0.845-13.355
							c3.077,0.657,9.797,4.568,9.102,9.104c-0.825,5.416-1.278,9.931-1.278,9.931L850.658,404.391z"/>
						
							<rect x="850.3" y="397.368" transform="matrix(0.3711 0.9286 -0.9286 0.3711 911.8602 -538.6969)" fill="#FDB839" width="6.653" height="12.94"/>
					</g>
					<polygon fill="#FCC69B" points="852.23,462.628 853.537,492.192 869.717,487.022 862.092,460.033 					"/>
					<path fill="#424CA0" d="M857.403,546.921c0.857-33.899-3.478-60.717-6.205-71.556c-1.974-0.634-4.633,0.064-7.315,1.796
						c2.575,10.136,6.885,34.56,5.998,69.569L857.403,546.921z"/>
				</g>
				<g>
					<g>
						<path fill="#424CA0" d="M897.117,579.103c3.588-25.711-6.325-43.117-6.325-43.117c-16.636,9.243-49.407,7.121-49.407,7.121
							l-4.643,43.447l-2.568,48.142c0,0,1.094,26.938,12.417,62.742l12.818-2.058c0,0,2.326-25.417-2.016-61.662
							c0,0,6.436-25.915,9.945-39.267c0.229-0.88,4.034-2.271,4.229-3.028C871.567,591.423,890.679,590.41,897.117,579.103z"/>
						<path fill="#424CA0" d="M875.482,697.027l11.207-1.647c0,0,5.244-26.258,0.039-60.908c0,0,8.9-19.671,9.647-50.853
							c0.304-1.537,0.534-3.035,0.741-4.517c-6.438,11.308-25.55,12.32-25.55,12.32l-8.221,45.453
							C863.347,636.876,866.73,658.711,875.482,697.027z"/>
						<path fill="#525DAA" d="M877.909,590.514c-3.676,0.767-6.342,0.909-6.342,0.909l-8.221,45.453c0,0,3.349,21.593,11.987,59.491
							c1.307-0.861,2.381-1.912,2.931-3.178c1.133-2.613-0.589-4.293-2.711-12.641c-1.327-5.215-0.621-4.429-2.708-14.895
							c-1.599-8.03-2.4-12.042-3.158-13.996c-2.139-5.497-4.296-7.826-3.16-10.832c1.084-2.866,4.031-3.358,4.063-5.869
							c0.025-2.125-2.071-2.97-3.161-4.966c-2.578-4.73,2.582-12.13,4.063-14.446C874.566,610.737,877.579,603.103,877.909,590.514z
							"/>
					</g>
					<polygon fill="#FCC69B" points="846.591,697.438 849.011,705.319 857.953,704.643 857.914,695.742 					"/>
					<g>
						<path fill="#FDB839" d="M832.757,717.089c0,0,0.106-5.296,10.068-6.949c5.271-0.877,2.569-4.772,2.569-4.772l9.822-3.019
							l-9.36,16.484L832.757,717.089z"/>
						<g>
							<path fill="#424CA0" d="M856.772,702.232c-6.622-0.022-6.144,5.62-7.131,9.195l0,0c0,0-4.658,6.706-14.633,5.924
								c2.378,0.316,6.188,0.844,9.208,1.265c3.044,0.421,6.137,0.227,9.107-0.573l5.561-1.494
								c3.227-1.767,6.746-13.964-1.565-14.304C857.142,702.239,856.957,702.232,856.772,702.232z"/>
							<path fill="#FAA324" d="M833.385,717.173c0.566,0.088,1.097,0.136,1.624,0.179
								C833.006,717.083,832.022,716.96,833.385,717.173z"/>
						</g>
					</g>
					<polygon fill="#FCC69B" points="875.482,697.027 877.786,704.957 886.729,704.28 886.689,695.38 					"/>
					<g>
						<path fill="#FDB839" d="M861.535,716.724c0,0,0.104-5.293,10.068-6.949c5.267-0.877,2.565-4.77,2.565-4.77l9.822-3.021
							l-9.359,16.487L861.535,716.724z"/>
						<g>
							<path fill="#424CA0" d="M885.547,701.87c-6.622-0.022-6.141,5.616-7.13,9.191l0,0c0,0-4.659,6.71-14.634,5.924
								c2.378,0.32,6.192,0.848,9.208,1.266c3.048,0.423,6.141,0.229,9.107-0.569l5.562-1.498
								c3.226-1.767,6.746-13.964-1.563-14.301C885.916,701.873,885.735,701.87,885.547,701.87z"/>
							<path fill="#FAA324" d="M862.159,716.808c0.566,0.091,1.101,0.136,1.624,0.178
								C861.784,716.717,860.797,716.594,862.159,716.808z"/>
						</g>
					</g>
				</g>
				
					<rect x="843.904" y="692.221" transform="matrix(0.9941 -0.1082 0.1082 0.9941 -70.2969 96.3326)" fill="#424CA0" width="16.737" height="7.046"/>
				
					<rect x="872.737" y="690.568" transform="matrix(0.9941 -0.1082 0.1082 0.9941 -69.9485 99.4436)" fill="#424CA0" width="16.737" height="7.046"/>
				<path fill="#FFFFFF" d="M851.955,473.551l-0.269,4.953c0,0,6.535,2.28,10.625,1.07c4.089-1.213,5.507-5.034,5.507-5.034
					l-1.365-3.682C866.453,470.858,862.765,476.653,851.955,473.551z"/>
				<path fill="#401B0F" d="M855.116,432.526c0,0-9.587,8.664,2.167,17.539c0,0,4.352,3.167-2.076,10.86
					c-1.317,1.572-1.317,3.87,0.013,5.433c3.901,4.584,12.442,11.308,21.544-2.87c4.219-6.57,4.781-14.273,1.255-18.839
					c-3.371-4.358-6.461-6.83-11.669-8.629C861.622,434.384,859.138,434.95,855.116,432.526z"/>
				<path fill="#401B0F" d="M855.161,460.916c-11.311,9.787-10.653,23.221-10.634,25.316c0.094,10.8,10.938,19.477,11.178,22.014
					c0.663,6.943-10.502,21.589-8.907,28.846c2.307,10.496,20.981,14.316,39.296,6.672c20.937-8.739,23.645-36.595,4.95-55.742
					c-8.266-8.467-5.567-25.086-7.146-37.189c-0.951-7.306-3.1,0.414-6.626-4.992c-5.273-8.085-18.257-10.835-20.272-8.37
					c-1.89,2.317,6.387,8.325,4.562,15.365C860.646,456.364,859.516,457.15,855.161,460.916z"/>
				<path fill="#FCC69B" d="M860.746,452.764c0.753,1.452-0.098,3.384-1.896,4.313c-1.799,0.932-3.866,0.505-4.617-0.948
					c-0.75-1.452,0.101-3.384,1.899-4.313C857.928,450.884,859.995,451.311,860.746,452.764z"/>
			</g>
		</g>
		<g>
			<g>
				<path fill="#FDB839" d="M882.85,456.051l-27.553-21.761c6.012-7.609,17.051-8.903,24.66-2.896
					C887.563,437.405,888.86,448.444,882.85,456.051"/>
			</g>
			<path fill="#FAA324" d="M874.039,428.34c2.09,0.618,4.103,1.621,5.918,3.055c7.605,6.011,8.903,17.05,2.893,24.656l-7.17-5.662
				C880.455,443.53,879.691,434.319,874.039,428.34z"/>
			
				<rect x="864.313" y="423.032" transform="matrix(-0.5979 0.8015 -0.8015 -0.5979 1740.5243 13.7194)" fill="#FAA324" width="5.017" height="40.714"/>
		</g>
	</g>
</g>
</svg>
